Coordinates
version=1
nRows=26
nColumns=27
inDegrees=yes

Units are S.I. units (second, meters, Newtons, ...)
If the header above contains a line with 'inDegrees', this indicates whether rotational values are in degrees (yes) or radians (no).

endheader
time	pelvis_rotation	pelvis_tilt	pelvis_list	pelvis_tx	pelvis_ty	pelvis_tz	hip_flexion_r	hip_adduction_r	hip_rotation_r	knee_angle_r	knee_rotation_r	knee_adduction_r	knee_angle_r_beta	ankle_angle_r	subtalar_angle_r	mtp_angle_r	hip_flexion_l	hip_adduction_l	hip_rotation_l	knee_angle_l	knee_rotation_l	knee_adduction_l	knee_angle_l_beta	ankle_angle_l	subtalar_angle_l	mtp_angle_l
      4.19000000	      9.64827233	    -37.91580705	      7.05326631	     -0.04419232	      0.65219760	     -1.14551481	     99.56129185	    -47.91949983	     -3.42916086	     74.48238730	      0.00000000	      9.55477460	      1.29996289	      7.36725691	      0.00000000	      0.00000000	     96.66783736	    -29.10747324	     -5.28922328	     69.33248920	      0.00000000	     -9.81042430	      1.21008022	      2.31753649	      0.00000000	      0.00000000
      4.19500000	     10.21252790	    -37.93052763	      7.08819194	     -0.04411359	      0.65046618	     -1.14575926	     99.69153412	    -48.67741679	     -3.71584591	     74.82148203	      0.00000000	      9.76686368	      1.30588121	      7.39733431	      0.00000000	      0.00000000	     97.21673217	    -28.70469750	     -4.89643900	     69.70129355	      0.00000000	     -9.90031103	      1.21651707	      2.37340759	      0.00000000	      0.00000000
      4.20000000	     10.21790952	    -38.01576956	      7.09414112	     -0.04439426	      0.64878454	     -1.14567909	    100.14498114	    -48.71055258	     -3.43711295	     75.13232758	      0.00000000	      9.76809004	      1.31130649	      7.54759752	      0.00000000	      0.00000000	     97.60552657	    -28.79840627	     -4.77043203	     70.03279710	      0.00000000	     -9.90142300	      1.22230289	      2.39235475	      0.00000000	      0.00000000
      4.20500000	     10.22780448	    -38.12538060	      7.13190599	     -0.04476223	      0.64705369	     -1.14562816	    100.69012124	    -48.72425630	     -3.06611422	     75.44906892	      0.00000000	      9.76932480	      1.31683467	      7.54968058	      0.00000000	      0.00000000	     98.01210201	    -28.88528167	     -4.66735367	     70.37225931	      0.00000000	     -9.90260148	      1.22822763	      2.45789310	      0.00000000	      0.00000000
      4.21000000	      9.68667475	    -38.33010667	      7.12958683	     -0.04550192	      0.64540995	     -1.14526174	    101.55345316	    -48.02484298	     -2.20638039	     75.74525611	      0.00000000	      9.56416744	      1.32200411	      7.64940266	      0.00000000	      0.00000000	     98.29831275	    -29.46846059	     -4.80403744	     70.66961569	      0.00000000	     -9.81920470	      1.23341747	      2.45437742	      0.00000000	      0.00000000
      4.21500000	     10.25772587	    -38.30329537	      7.17787587	     -0.04528038	      0.64378336	     -1.14550330	    101.63787220	    -48.79211045	     -2.46028431	     76.05853389	      0.00000000	      9.77203189	      1.32747184	      7.72910766	      0.00000000	      0.00000000	     98.76037252	    -29.04652801	     -4.44816663	     71.00976651	      0.00000000	     -9.90475816	      1.23935423	      2.53851168	      0.00000000	      0.00000000
      4.22000000	      9.72226498	    -38.53975756	      7.17697862	     -0.04603614	      0.64214203	     -1.14509104	    102.50867724	    -48.07333738	     -1.60967509	     76.33937409	      0.00000000	      9.56905785	      1.33237343	      7.84060566	      0.00000000	      0.00000000	     99.08221219	    -29.63074697	     -4.57158902	     71.30066117	      0.00000000	     -9.82279960	      1.24443130	      2.55742777	      0.00000000	      0.00000000
      4.22500000	     10.30158874	    -38.53590294	      7.21568299	     -0.04585784	      0.64051662	     -1.14529786	    102.62041672	    -48.84158535	     -1.86610478	     76.66780545	      0.00000000	      9.77402507	      1.33810564	      7.91241885	      0.00000000	      0.00000000	     99.58215092	    -29.20009749	     -4.19663979	     71.63400564	      0.00000000	     -9.90668715	      1.25024925	      2.59521789	      0.00000000	      0.00000000
      4.23000000	     10.31009654	    -38.64099095	      7.24961281	     -0.04611589	      0.63887755	     -1.14519557	    103.12998951	    -48.85195065	     -1.53369680	     76.97235947	      0.00000000	      9.77516913	      1.34342111	      7.98211796	      0.00000000	      0.00000000	     99.96273703	    -29.29111799	     -4.09861599	     71.94607854	      0.00000000	     -9.90771887	      1.25569595	      2.64039235	      0.00000000	      0.00000000
      4.23500000	      9.79450576	    -38.83327425	      7.26509040	     -0.04676547	      0.63730607	     -1.14483488	    103.92871208	    -48.15530110	     -0.71389157	     77.23823235	      0.00000000	      9.57469967	      1.34806146	      8.09529501	      0.00000000	      0.00000000	    100.21509235	    -29.85348733	     -4.23544147	     72.22001778	      0.00000000	     -9.82816882	      1.26047710	      2.67893995	      0.00000000	      0.00000000
      4.24000000	     10.35665921	    -38.83644599	      7.34760255	     -0.04658183	      0.63566427	     -1.14504474	    104.13256983	    -48.88947490	     -0.84703086	     77.56291010	      0.00000000	      9.77754209	      1.35372816	      8.17663291	      0.00000000	      0.00000000	    100.67583409	    -29.43584709	     -3.91892473	     72.54249533	      0.00000000	     -9.90961701	      1.26610539	      2.76501376	      0.00000000	      0.00000000
      4.24500000	     10.36449365	    -38.98598485	      7.35241946	     -0.04689144	      0.63401394	     -1.14491160	    104.66962606	    -48.89468053	     -0.55564222	     77.88073374	      0.00000000	      9.77789653	      1.35927523	      8.19582419	      0.00000000	      0.00000000	    101.13464733	    -29.52899487	     -3.77837100	     72.85518522	      0.00000000	     -9.91048568	      1.27156286	      2.74893715	      0.00000000	      0.00000000
      4.25000000	      9.86730558	    -39.17624796	      7.38049992	     -0.04751076	      0.63240323	     -1.14455213	    105.45904481	    -48.20538199	      0.24990097	     78.15300255	      0.00000000	      9.58030846	      1.36402721	      8.32801903	      0.00000000	      0.00000000	    101.39404165	    -30.08237850	     -3.90734291	     73.13517706	      0.00000000	     -9.83313424	      1.27644964	      2.77879181	      0.00000000	      0.00000000
      4.25500000	     10.41700725	    -39.15291655	      7.43922977	     -0.04728143	      0.63075959	     -1.14473078	    105.61950958	    -48.94263082	      0.09387644	     78.47747213	      0.00000000	      9.78023341	      1.36969028	      8.43053717	      0.00000000	      0.00000000	    101.83765394	    -29.67400687	     -3.58365465	     73.45969253	      0.00000000	     -9.91220734	      1.28211350	      2.83282770	      0.00000000	      0.00000000
      4.26000000	     10.43710302	    -39.25044846	      7.47927258	     -0.04750978	      0.62908706	     -1.14463677	    106.12196935	    -48.95454957	      0.43062210	     78.78073366	      0.00000000	      9.78130142	      1.37498319	      8.51787946	      0.00000000	      0.00000000	    102.21383376	    -29.75002304	     -3.47267460	     73.76770582	      0.00000000	     -9.91303694	      1.28748935	      2.87057751	      0.00000000	      0.00000000
      4.26500000	      9.96331948	    -39.41859750	      7.50369610	     -0.04810565	      0.62742810	     -1.14428880	    106.86433284	    -48.29114376	      1.18994196	     79.05521744	      0.00000000	      9.58707354	      1.37977384	      8.66350522	      0.00000000	      0.00000000	    102.47047002	    -30.27694913	     -3.56453598	     74.05098605	      0.00000000	     -9.83781569	      1.29243352	      2.90515294	      0.00000000	      0.00000000
      4.27000000	     10.47030778	    -39.40877428	      7.55874888	     -0.04793287	      0.62566887	     -1.14445703	    107.10948100	    -48.98297264	      1.11338124	     79.40234138	      0.00000000	      9.78364391	      1.38583229	      8.70831967	      0.00000000	      0.00000000	    102.93306936	    -29.90322714	     -3.24593523	     74.39298034	      0.00000000	     -9.91468862	      1.29840245	      2.95810277	      0.00000000	      0.00000000
      4.27500000	      9.98239006	    -39.56651164	      7.57639330	     -0.04851555	      0.62395115	     -1.14411223	    107.84528554	    -48.30942096	      1.86782268	     79.68419920	      0.00000000	      9.59098582	      1.39075164	      8.79814624	      0.00000000	      0.00000000	    103.18680832	    -30.44474097	     -3.32913112	     74.68572042	      0.00000000	     -9.84088711	      1.30351173	      2.99543545	      0.00000000	      0.00000000
      4.28000000	     10.50335989	    -39.53020629	      7.63617150	     -0.04832495	      0.62213535	     -1.14429583	    108.07234459	    -49.01426414	      1.80939783	     80.03424822	      0.00000000	      9.78581649	      1.39686115	      8.90249151	      0.00000000	      0.00000000	    103.62961004	    -30.05033610	     -3.00268355	     75.03454272	      0.00000000	     -9.91620481	      1.30959982	      3.05638147	      0.00000000	      0.00000000
      4.28500000	     10.51037359	    -39.59414177	      7.67842001	     -0.04853792	      0.62031782	     -1.14421867	    108.57516006	    -49.01242903	      2.17775415	     80.35462919	      0.00000000	      9.78694007	      1.40245285	      9.00505573	      0.00000000	      0.00000000	    103.98601803	    -30.13121293	     -2.87954207	     75.36384106	      0.00000000	     -9.91699815	      1.31534716	      3.10532656	      0.00000000	      0.00000000
      4.29000000	     10.03116454	    -39.73286045	      7.68273639	     -0.04912350	      0.61847936	     -1.14387531	    109.27595375	    -48.34856513	      2.90043476	     80.65213325	      0.00000000	      9.59774637	      1.40764527	      9.10591891	      0.00000000	      0.00000000	    104.25547616	    -30.66047617	     -2.91841759	     75.67335043	      0.00000000	     -9.84501923	      1.32074912	      3.14326612	      0.00000000	      0.00000000
      4.29500000	     10.51949385	    -39.62677560	      7.72747149	     -0.04883357	      0.61659334	     -1.14407399	    109.45628861	    -49.04671622	      2.86823232	     81.00941553	      0.00000000	      9.78929933	      1.41388103	      9.18700715	      0.00000000	      0.00000000	    104.62663470	    -30.27960943	     -2.59139967	     76.03936552	      0.00000000	     -9.91850457	      1.32713729	      3.21879367	      0.00000000	      0.00000000
      4.30000000	     10.51853972	    -39.68276034	      7.75772394	     -0.04905077	      0.61466245	     -1.14400192	    109.95858241	    -49.03882666	      3.24237930	     81.34421786	      0.00000000	      9.79037859	      1.41972443	      9.29162954	      0.00000000	      0.00000000	    104.99907235	    -30.36532072	     -2.44369102	     76.38496691	      0.00000000	     -9.91927417	      1.33316917	      3.26880920	      0.00000000	      0.00000000
      4.30500000	     10.52366524	    -39.68835967	      7.77964520	     -0.04918704	      0.61273066	     -1.14395263	    110.39375010	    -49.05123735	      3.59863692	     81.67815625	      0.00000000	      9.79156799	      1.42555275	      9.40569741	      0.00000000	      0.00000000	    105.32218129	    -30.43195583	     -2.28156869	     76.73571808	      0.00000000	     -9.91986458	      1.33929093	      3.32926326	      0.00000000	      0.00000000
      4.31000000	     10.53267293	    -39.68535313	      7.80463940	     -0.04930025	      0.61077073	     -1.14389426	    110.82815833	    -49.06963542	      3.96286973	     82.01467113	      0.00000000	      9.79267117	      1.43142605	      9.50287945	      0.00000000	      0.00000000	    105.63670290	    -30.49196889	     -2.11747165	     77.08655159	      0.00000000	     -9.92049277	      1.34541413	      3.40183915	      0.00000000	      0.00000000
      4.31500000	     10.52134137	    -39.68349213	      7.78641785	     -0.04938867	      0.60883333	     -1.14382683	    111.20281388	    -49.07850384	      4.26142410	     82.34468805	      0.00000000	      9.79378515	      1.43718593	      9.64059084	      0.00000000	      0.00000000	    105.97492624	    -30.56342683	     -1.91215379	     77.44142195	      0.00000000	     -9.92121306	      1.35160779	      3.46258815	      0.00000000	      0.00000000
